<?xml version="1.0" standalone="no"?>
<!DOCTYPE svg PUBLIC "-//W3C//DTD SVG 20010904//EN"
 "http://www.w3.org/TR/2001/REC-SVG-20010904/DTD/svg10.dtd">
<svg version="1.0" xmlns="http://www.w3.org/2000/svg"
 width="1024.000000pt" height="1024.000000pt" viewBox="0 0 1024.000000 1024.000000"
 preserveAspectRatio="xMidYMid meet">

<g transform="translate(0.000000,1024.000000) scale(0.100000,-0.100000)" 
fill="#fed700" stroke="none">
<path d="M1000 9814 c-348 -75 -531 -446 -374 -757 41 -80 154 -187 244 -230
109 -52 236 -81 330 -74 69 5 87 12 235 87 185 94 235 105 359 76 269 -63 432
-298 531 -769 14 -64 133 -845 265 -1735 132 -889 256 -1702 275 -1807 213
-1147 615 -1722 1330 -1900 142 -35 285 -54 470 -61 191 -8 1608 12 1915 26
839 39 1269 137 1621 371 110 73 315 272 404 393 282 381 527 944 915 2106
133 398 145 449 145 640 0 125 -3 155 -23 215 -35 105 -77 172 -161 256 -157
156 -335 228 -766 308 -734 137 -3604 612 -5225 866 -195 30 -365 58 -378 60
-15 4 -29 19 -38 43 -298 741 -485 1070 -783 1376 -279 286 -572 440 -959 507
-132 22 -240 23 -332 3z"/>
<path d="M3975 2039 c-231 -57 -431 -218 -540 -434 -63 -125 -86 -223 -87
-365 -2 -245 84 -446 261 -612 114 -106 217 -163 372 -205 91 -24 300 -24 394
1 300 79 525 303 606 601 29 105 31 297 5 400 -25 100 -105 259 -170 337 -112
135 -277 238 -446 278 -114 27 -283 26 -395 -1z"/>
<path d="M6515 2046 c-331 -75 -588 -342 -645 -670 -16 -86 -8 -281 14 -361
71 -260 276 -479 529 -566 270 -93 557 -47 785 126 230 174 358 496 311 785
-51 320 -292 590 -604 676 -81 22 -309 28 -390 10z"/>
</g>
</svg>
