<svg width="0" height="0" class="hidden">
  <symbol xmlns="http://www.w3.org/2000/svg" xml:space="preserve" version="1.1" xmlns:xlink="http://www.w3.org/1999/xlink" xmlnsXodm="http://www.corel.com/coreldraw/odm/2003" viewBox="0 0 21000 29700" id="logo1">
    <defs></defs>
    <g id="Слой_x0020_1">
      <metadata id="CorelCorpID_0Corel-Layer"></metadata>
      <path d="M4308.81 4700.61c-4.22,8.44 -6.33,16.88 -6.33,25.32 0,37.99 50.65,100.24 151.94,186.76l-259.56 -94.96c-101.29,-37.99 -155.1,-83.36 -161.43,-136.11l12.13 -1769.44c103.4,-56.98 160.38,-92.85 170.4,-107.62l105.51 -145.61 0 402 -12.66 1639.66zm506.46 0c-4.22,8.44 -6.33,16.88 -6.33,25.32 0,37.99 50.65,100.24 151.94,186.76l-259.56 -94.96c-101.29,-37.99 -155.1,-83.36 -161.43,-136.11l12.13 -1769.44c103.4,-56.98 160.38,-92.85 170.4,-107.62l105.51 -145.61 0 402 -12.66 1639.66zm170.93 47.48l436.82 0c-65.41,-35.88 -92.85,-92.85 -82.3,-170.93 16.89,-126.62 28.49,-298.6 34.82,-515.95 6.33,-221.58 5.28,-412.56 -3.16,-572.93l-284.88 0c14.77,204.69 22.15,391.44 22.15,560.26 0,223.69 -11.6,410.45 -34.82,560.27 -10.55,65.42 -40.09,111.85 -88.63,139.28zm205.75 -1813.75c27.44,18.99 60.14,28.49 98.13,28.49 8.44,0 22.16,-2.11 41.15,-6.34 18.99,-4.22 32.71,-6.33 41.15,-6.33 23.21,0 34.82,96.02 34.82,288.05 -61.2,59.09 -132.95,92.85 -215.25,101.29 -50.64,-54.86 -91.79,-130.83 -123.45,-227.9 4.22,-33.77 7.39,-66.47 9.5,-98.13 14.77,-48.53 52.76,-74.91 113.95,-79.13zm1139.53 569.76l-18.99 778.68c-19,14.77 -132.95,105.51 -341.86,272.22 -84.41,67.53 -137.17,101.29 -158.27,101.29 -10.55,0 -17.94,-3.16 -22.16,-9.49l-180.42 -259.56c-4.22,-4.22 -6.33,-345.03 -6.33,-1022.41 0,-14.78 1.49,-31.53 1.49,-31.53 23.86,48.51 60.36,87.19 110.38,116.78 101.82,60.24 147.78,48.85 143.55,50.96 2.12,215.25 8.36,522.18 23.13,876.7 21.1,42.21 61.19,54.87 120.28,37.99 6.33,-2.11 43.26,-47.48 110.79,-136.11 2.11,-92.86 3.16,-184.65 3.16,-275.39 0,-208.91 -6.33,-416.77 -18.99,-623.58 15.19,42.41 76.39,75.27 98.13,82.3 86.52,27.44 131.89,41.15 136.11,41.15zm269.06 107.62l-94.96 -126.61c-33.77,-44.31 -50.65,-91.8 -50.65,-142.44 0,-18.99 5.28,-34.82 15.83,-47.48 21.1,-27.43 124.5,-96.02 310.2,-205.75 69.64,50.65 143.5,106.57 221.58,167.76 111.84,88.63 162.49,160.38 151.94,215.25l-12.66 721.7 117.11 6.33 -231.59 256.4c-53.82,37.98 -92.33,56.97 -116.07,56.97 -21.63,0 -29.01,-12.66 -22.68,-37.98l0 -113.96 -199.95 126.62c-91.27,16.88 -176.73,-166.71 -255.86,-550.77 35.87,-71.75 101.29,-128.73 196.25,-170.93l208.91 -94.96c-71.75,78.08 -106.57,139.27 -104.46,183.59 -4.22,29.54 -6.33,59.08 -6.33,88.63 0,141.38 30.6,253.23 91.8,335.53 33.76,4.22 56.98,-14.78 69.64,-56.98l0 -927.45 -47.48 25.32c-10.55,6.33 -39.04,24.27 -85.47,53.81 -78.08,48.54 -117.12,91.8 -117.12,129.78l28.49 104.46 -66.47 3.16zm677.39 -3.16c107.62,-73.86 230.02,-165.65 367.18,-275.39l0 284.89c40.1,-48.54 90.74,-104.46 151.94,-167.77 88.63,-67.53 141.39,-101.29 158.27,-101.29 10.55,0 17.93,3.16 22.16,9.5l180.42 259.56c2.11,2.11 3.17,347.13 3.17,1035.07 0,21.1 -10.56,34.82 -31.66,41.15l-291.21 170.93 0 -12.66c44.31,-42.21 69.64,-81.25 75.97,-117.12 -2.11,-354.52 -11.61,-723.82 -28.49,-1107.88 -21.1,-42.2 -61.2,-54.86 -120.28,-37.98 -6.33,2.11 -43.26,47.48 -110.79,136.11 -6.33,240.56 -1.06,498.01 15.83,772.35 4.22,67.52 36.92,108.67 98.12,123.44 -29.54,0 -74.38,-1.05 -134.53,-3.16 -60.14,-2.11 -104.98,-3.17 -134.52,-3.17 -19,0 -48.01,1.06 -87.05,3.17 -39.04,2.11 -68.06,3.16 -87.05,3.16 54.87,-23.21 87.58,-42.2 98.13,-56.97 8.44,-8.44 12.66,-29.55 12.66,-63.31l0 -898.96 -158.27 6.33zm1896.05 927.45l-335.52 15.83 0 -139.28 -238.99 126.61 -264.31 -193.08 -63.3 -959.11 386.17 -218.41 180.43 253.23 0 -648.9c8.44,-46.42 -12.67,-103.4 -63.31,-170.93l367.18 0c-42.2,54.87 -63.31,106.57 -63.31,155.11l28.49 1668.14c10.55,44.32 32.71,81.25 66.47,110.79zm-586.12 -1104.71l-24.79 509.62c-8.44,179.37 12.66,318.65 62.78,417.83l212.61 -101.29 0 -712.21 -157.74 -196.25 -92.86 82.3zm1419.44 394.68l-51.47 127.6c-82.3,-48.53 -176.2,-72.8 -281.72,-72.8 -63.3,0 -102.34,8.44 -117.11,25.32l22.15 519.12c16.89,35.88 52.76,68.58 107.63,98.13 42.2,-54.87 70.69,-123.45 85.46,-205.75 2.11,-8.44 7.39,-62.25 15.83,-161.43l139.27 177.26 -193.08 275.38 -161.44 3.17 -319.7 -278.55c-16.88,-80.19 -25.32,-171.99 -25.32,-275.39 0,-147.72 14.77,-302.82 44.31,-465.31l354.52 -278.55c25.33,-8.44 46.43,-7.39 63.31,3.17l256.39 167.76 60.97 340.87zm-200.24 -18l-161.43 -364.02c-14.78,-18.99 -24.27,-28.49 -28.49,-28.49 -8.44,0 -16.88,7.39 -25.33,22.16l-37.98 360.85c118.17,-6.33 202.58,-3.16 253.23,9.5zm261.52 -402.72c107.62,-73.86 230.01,-165.66 367.18,-275.39l0 284.88c109.73,-94.96 181.48,-142.44 215.24,-142.44 10.55,0 18.39,2.93 22.16,9.5l148.77 259.56c12.62,22.01 25.32,37.98 25.32,56.98 0,21.1 -12.68,30.02 -31.65,41.15l-291.21 170.92 0 -12.66c44.31,-42.2 69.64,-81.24 75.97,-117.11 -8.45,-31.66 -23.03,-70.81 -44.32,-117.12 -27.21,-59.17 -48.35,-85.74 -63.31,-82.3 -12.49,2.87 -28.48,15.82 -47.48,41.15 -8.44,314.42 -3.16,624.64 15.83,930.61 4.19,67.51 36.93,108.68 98.13,123.45 -29.55,0 -74.39,0 -134.53,0 -60.14,0 -104.99,0 -134.53,0 -18.99,0 -48.01,0 -87.05,0 -39.04,0 -68.05,0 -87.04,0 54.86,-23.21 86.64,-42.93 98.12,-56.97 7.55,-9.23 12.66,-29.55 12.66,-63.31l0 -1057.23 -158.26 6.33zm1585.48 940.81c-16.88,12.66 -84.23,64.6 -202.58,155.1 -132.76,101.52 -220.52,151.94 -262.73,151.94 -6.33,0 -9.68,-2.68 -12.66,-6.33l-212.08 -259.56c-27.43,-61.2 -41.15,-103.41 -41.15,-126.62 0,-25.32 15.83,-47.48 47.48,-66.47l63.31 -37.98 139.28 -31.66c-16.89,16.88 -25.33,37.99 -25.33,63.31 0,8.44 2.65,26.9 7.92,55.39 5.27,28.48 6.85,48.01 4.74,58.56 6.33,25.32 34.3,57.52 84.41,96.55 50.11,39.03 86.52,55.39 109.21,49.06 0,-23.21 20.05,-60.14 59.61,-110.79l-12.66 3.17c8.44,-6.33 12.66,-15.83 12.66,-28.49 0,-27.44 -81.77,-136.12 -245.31,-325.51 -235,-272.14 -258.76,-291.47 -232.37,-326.49 12.7,-16.85 111.49,-102.02 228.67,-192.63 131.79,-101.91 218.94,-152.46 260.62,-152.46 6.33,0 9.7,2.67 12.66,6.33l210.5 261.14c26.9,61.73 40.62,103.93 40.62,127.67 0,25.32 -15.83,47.48 -47.48,66.47l-227.91 51.18 0 -12.66c21.11,-16.89 31.66,-39.04 31.66,-66.48 0,-10.55 -2.65,-30.59 -7.92,-60.14 -5.27,-29.53 -6.86,-50.64 -4.75,-63.31 -6.33,-25.32 -25.85,-49.07 -58.55,-71.22 -32.7,-22.15 -62.78,-33.23 -90.22,-33.23 -23.21,0 -46.43,13.71 -69.64,41.15 -23.21,27.42 -34.81,53.81 -34.81,79.13 0,14.77 4.37,27.32 12.66,37.99 65.55,84.29 176.07,211.15 332.36,379.84 109.59,118.29 164.6,196.25 164.6,234.24 0,14.77 -5.28,26.37 -15.83,34.81l-18.99 3.17 0 15.83z"></path>
      <path d="M1408.57 3385.48c0,0 -52.43,20.96 -44.53,43.04 7.9,22.08 48.94,-3.09 106.66,-22.35 57.72,-19.27 3921.61,-1633.74 3921.61,-1633.74 32.92,-17.42 236.29,-114.24 179.83,-199.59 -56.46,-85.35 -392.89,102.75 -580.87,182.69 -187.97,79.94 -3582.7,1629.95 -3582.7,1629.95z"></path>
      <path d="M5850.03 1533.65c-51.78,22.87 -218.82,89.15 -259.87,57.55 -7.53,-5.8 -12.12,-13.63 -14.25,-23.63 -8.68,-40.62 166.9,-142.2 199.39,-156.55 80.63,-35.61 158.9,-35.29 174.82,0.74 15.92,36.03 -48.31,99.02 -100.09,121.89z"></path>
      <circle transform="matrix(0.395451 -0.0846127 0.0846127 0.395451 6043.46 1370.52)" r="240.33"></circle>
      <ellipse transform="matrix(-0.369904 0.163437 -0.163437 -0.369904 6276.61 1267.5)" rx="394.67" ry="176.39"></ellipse>
      <ellipse transform="matrix(0.395451 -0.0846127 0.0846127 0.395451 6466.64 1183.54)" rx="105.83" ry="103.63"></ellipse>
      <path d="M6631.23 1043.29c73.02,-42.26 44.4,-83.58 63.18,-88.15l99.93 -47.32 100.75 212.74 -99.93 47.33c-20.24,18 -10.6,-22.41 -105.19,5.41 -84.56,24.87 -158.6,36.61 -174.82,0.71 -16.22,-35.91 39.79,-86.58 116.08,-130.72z"></path>
      <path d="M2765.09 3843.61c0,0 -273.11,151.97 -301.25,443.32 -28.13,291.34 244.44,271.93 371.43,169.45 49.09,-39.61 108.83,-91.85 165.02,-158.79 11.15,-13.29 63.81,-19.58 63.81,-19.58 0,0 -7.64,-54.37 3.37,-71.61 59.51,-93.2 106.12,-207.85 116.97,-347.38 16.32,-209.81 -24.53,-437.91 -140.35,-588 -23.3,-30.2 -41.71,-159.74 -41.71,-159.74 0,0 -121.5,24.96 -172.25,10.02 -278.98,-82.14 -672.67,56.48 -948.24,397.1 -275.58,340.62 -395.39,937.99 -234.5,1266.61 13.48,27.55 -16.43,129.09 -16.43,129.09 0,0 99.19,9.61 119.28,35.73 54.53,70.86 122.39,139.19 201.56,190.78 251.61,163.99 617.6,207.58 1034.09,-26.96 62.36,-35.11 251.06,-13.71 251.06,-13.71 0,0 -5.92,-172.29 27.09,-208.22 394.59,-429.51 444.19,-1097 427.06,-1256.94 -9.33,-87.13 -63.99,-366.13 -210.78,-636.44 -16.5,-30.38 2.05,-125.83 2.05,-125.83 0,0 -93.09,-22.55 -113.88,-50.62 -185.88,-251.04 -469.96,-451.2 -896.08,-412.65 -188.61,17.06 -351.34,68.63 -490.54,138.98 -14.52,7.33 -56.04,6.62 -56.04,6.62 0,0 -16.57,32.82 -31.02,41.51 -440.65,265.26 -613.7,709.79 -613.7,709.79 0,0 374.85,-813.05 1193.01,-862.67 34.84,-2.11 101.54,65.72 101.54,65.72 0,0 71.18,-61.49 104.95,-55.95 501.86,82.45 741.35,587.04 809.05,986.68 10.76,63.52 -68.55,180.5 -68.55,180.5 0,0 89.32,99.15 85.14,141.02 -41.07,410.79 -328.62,1068.08 -818.14,1259.77 -92.21,36.1 -189.74,63.34 -288.05,76.07 -29.68,3.84 -88.68,-54.37 -88.68,-54.37 0,0 -62.99,62.24 -93.86,59.78 -306.18,-24.49 -549.33,-231.4 -570.09,-718.22 -11.45,-268.51 66.99,-492.09 184.99,-666.31 19.68,-29.06 142.51,-53.49 142.51,-53.49 0,0 -33.26,-84 -8.53,-108.8 187.46,-188.01 415.27,-283.97 560.82,-277.12 290.97,13.69 520.33,184.86 544.3,393.68 23.96,208.82 -6.26,498.89 -232.79,688.08 -196.83,164.4 -281.8,119.13 -316.53,77.43 -34.73,-41.71 -128.49,-296.52 242.89,-594.33z"></path>
      <polygon points="2905.78,3668.53 2928.79,3739.81 3003.69,3739.67 2943.01,3783.58 2966.29,3854.77 2905.78,3810.63 2845.27,3854.77 2868.55,3783.58 2807.87,3739.67 2882.77,3739.81 "></polygon>
      <polygon points="1254.21,3235.73 1277.22,3307.01 1352.12,3306.87 1291.44,3350.78 1314.72,3421.97 1254.21,3377.83 1193.7,3421.97 1216.98,3350.78 1156.3,3306.87 1231.2,3307.01 "></polygon>
      <path d="M4060.05 -2838.04c-4.22,8.44 -6.33,16.88 -6.33,25.32 0,37.99 50.65,100.24 151.94,186.76l-259.56 -94.96c-101.29,-37.99 -155.1,-83.36 -161.43,-136.11l12.13 -1769.44c103.4,-56.98 160.38,-92.85 170.4,-107.62l105.51 -145.61 0 402 -12.66 1639.66zm506.46 0c-4.22,8.44 -6.33,16.88 -6.33,25.32 0,37.99 50.65,100.24 151.94,186.76l-259.56 -94.96c-101.29,-37.99 -155.1,-83.36 -161.43,-136.11l12.13 -1769.44c103.4,-56.98 160.38,-92.85 170.4,-107.62l105.51 -145.61 0 402 -12.66 1639.66zm170.93 47.48l436.82 0c-65.41,-35.88 -92.85,-92.85 -82.3,-170.93 16.89,-126.62 28.49,-298.6 34.82,-515.95 6.33,-221.58 5.28,-412.56 -3.16,-572.93l-284.88 0c14.77,204.69 22.15,391.44 22.15,560.26 0,223.69 -11.6,410.45 -34.82,560.27 -10.55,65.42 -40.09,111.85 -88.63,139.28zm205.75 -1813.75c27.44,18.99 60.14,28.49 98.13,28.49 8.44,0 22.16,-2.11 41.15,-6.34 18.99,-4.22 32.71,-6.33 41.15,-6.33 23.21,0 34.82,96.02 34.82,288.05 -61.2,59.09 -132.95,92.85 -215.25,101.29 -50.64,-54.86 -91.79,-130.83 -123.45,-227.9 4.22,-33.77 7.39,-66.47 9.5,-98.13 14.77,-48.53 52.76,-74.91 113.95,-79.13zm1139.53 569.76l-18.99 778.68c-19,14.77 -132.95,105.51 -341.86,272.22 -84.41,67.53 -137.17,101.29 -158.27,101.29 -10.55,0 -17.94,-3.16 -22.16,-9.49l-180.42 -259.56c-4.22,-4.22 -6.33,-345.03 -6.33,-1022.41 0,-14.78 1.49,-31.53 1.49,-31.53 23.86,48.51 60.36,87.19 110.38,116.78 101.82,60.24 147.78,48.85 143.55,50.96 2.12,215.25 8.36,522.18 23.13,876.7 21.1,42.21 61.19,54.87 120.28,37.99 6.33,-2.11 43.26,-47.48 110.79,-136.11 2.11,-92.86 3.16,-184.65 3.16,-275.39 0,-208.91 -6.33,-416.77 -18.99,-623.58 15.19,42.41 76.39,75.27 98.13,82.3 86.52,27.44 131.89,41.15 136.11,41.15zm269.06 107.62l-94.96 -126.61c-33.77,-44.31 -50.65,-91.8 -50.65,-142.44 0,-18.99 5.28,-34.82 15.83,-47.48 21.1,-27.43 124.5,-96.02 310.2,-205.75 69.64,50.65 143.5,106.57 221.58,167.76 111.84,88.63 162.49,160.38 151.94,215.25l-12.66 721.7 117.11 6.33 -231.59 256.4c-53.82,37.98 -92.33,56.97 -116.07,56.97 -21.63,0 -29.01,-12.66 -22.68,-37.98l0 -113.96 -199.95 126.62c-91.27,16.88 -176.73,-166.71 -255.86,-550.77 35.87,-71.75 101.29,-128.73 196.25,-170.93l208.91 -94.96c-71.75,78.08 -106.57,139.27 -104.46,183.59 -4.22,29.54 -6.33,59.08 -6.33,88.63 0,141.38 30.6,253.23 91.8,335.53 33.76,4.22 56.98,-14.78 69.64,-56.98l0 -927.45 -47.48 25.32c-10.55,6.33 -39.04,24.27 -85.47,53.81 -78.08,48.54 -117.12,91.8 -117.12,129.78l28.49 104.46 -66.47 3.16zm677.39 -3.16c107.62,-73.86 230.02,-165.65 367.18,-275.39l0 284.89c40.1,-48.54 90.74,-104.46 151.94,-167.77 88.63,-67.53 141.39,-101.29 158.27,-101.29 10.55,0 17.93,3.16 22.16,9.5l180.42 259.56c2.11,2.11 3.17,347.13 3.17,1035.07 0,21.1 -10.56,34.82 -31.66,41.15l-291.21 170.93 0 -12.66c44.31,-42.21 69.64,-81.25 75.97,-117.12 -2.11,-354.52 -11.61,-723.82 -28.49,-1107.88 -21.1,-42.2 -61.2,-54.86 -120.28,-37.98 -6.33,2.11 -43.26,47.48 -110.79,136.11 -6.33,240.56 -1.06,498.01 15.83,772.35 4.22,67.52 36.92,108.67 98.12,123.44 -29.54,0 -74.38,-1.05 -134.53,-3.16 -60.14,-2.11 -104.98,-3.17 -134.52,-3.17 -19,0 -48.01,1.06 -87.05,3.17 -39.04,2.11 -68.06,3.16 -87.05,3.16 54.87,-23.21 87.58,-42.2 98.13,-56.97 8.44,-8.44 12.66,-29.55 12.66,-63.31l0 -898.96 -158.27 6.33zm1896.05 927.45l-335.52 15.83 0 -139.28 -238.99 126.61 -264.31 -193.08 -63.3 -959.11 386.17 -218.41 180.43 253.23 0 -648.9c8.44,-46.42 -12.67,-103.4 -63.31,-170.93l367.18 0c-42.2,54.87 -63.31,106.57 -63.31,155.11l28.49 1668.14c10.55,44.32 32.71,81.25 66.47,110.79zm-586.12 -1104.71l-24.79 509.62c-8.44,179.37 12.66,318.65 62.78,417.83l212.61 -101.29 0 -712.21 -157.74 -196.25 -92.86 82.3zm1419.44 394.68l-51.47 127.6c-82.3,-48.53 -176.2,-72.8 -281.72,-72.8 -63.3,0 -102.34,8.44 -117.11,25.32l22.15 519.12c16.89,35.88 52.76,68.58 107.63,98.13 42.2,-54.87 70.69,-123.45 85.46,-205.75 2.11,-8.44 7.39,-62.25 15.83,-161.43l139.27 177.26 -193.08 275.38 -161.44 3.17 -319.7 -278.55c-16.88,-80.19 -25.32,-171.99 -25.32,-275.39 0,-147.72 14.77,-302.82 44.31,-465.31l354.52 -278.55c25.33,-8.44 46.43,-7.39 63.31,3.17l256.39 167.76 60.97 340.87zm-200.24 -18l-161.43 -364.02c-14.78,-18.99 -24.27,-28.49 -28.49,-28.49 -8.44,0 -16.88,7.39 -25.33,22.16l-37.98 360.85c118.17,-6.33 202.58,-3.16 253.23,9.5zm261.52 -402.72c107.62,-73.86 230.01,-165.66 367.18,-275.39l0 284.88c109.73,-94.96 181.48,-142.44 215.24,-142.44 10.55,0 18.39,2.93 22.16,9.5l148.77 259.56c12.62,22.01 25.32,37.98 25.32,56.98 0,21.1 -12.68,30.02 -31.65,41.15l-291.21 170.92 0 -12.66c44.31,-42.2 69.64,-81.24 75.97,-117.11 -8.45,-31.66 -23.03,-70.81 -44.32,-117.12 -27.21,-59.17 -48.35,-85.74 -63.31,-82.3 -12.49,2.87 -28.48,15.82 -47.48,41.15 -8.44,314.42 -3.16,624.64 15.83,930.61 4.19,67.51 36.93,108.68 98.13,123.45 -29.55,0 -74.39,0 -134.53,0 -60.14,0 -104.99,0 -134.53,0 -18.99,0 -48.01,0 -87.05,0 -39.04,0 -68.05,0 -87.04,0 54.86,-23.21 86.64,-42.93 98.12,-56.97 7.55,-9.23 12.66,-29.55 12.66,-63.31l0 -1057.23 -158.26 6.33zm1585.48 940.81c-16.88,12.66 -84.23,64.6 -202.58,155.1 -132.76,101.52 -220.52,151.94 -262.73,151.94 -6.33,0 -9.68,-2.68 -12.66,-6.33l-212.08 -259.56c-27.43,-61.2 -41.15,-103.41 -41.15,-126.62 0,-25.32 15.83,-47.48 47.48,-66.47l63.31 -37.98 139.28 -31.66c-16.89,16.88 -25.33,37.99 -25.33,63.31 0,8.44 2.65,26.9 7.92,55.39 5.27,28.48 6.85,48.01 4.74,58.56 6.33,25.32 34.3,57.52 84.41,96.55 50.11,39.03 86.52,55.39 109.21,49.06 0,-23.21 20.05,-60.14 59.61,-110.79l-12.66 3.17c8.44,-6.33 12.66,-15.83 12.66,-28.49 0,-27.44 -81.77,-136.12 -245.31,-325.51 -235,-272.14 -258.76,-291.47 -232.37,-326.49 12.7,-16.85 111.49,-102.02 228.67,-192.63 131.79,-101.91 218.94,-152.46 260.62,-152.46 6.33,0 9.7,2.67 12.66,6.33l210.5 261.14c26.9,61.73 40.62,103.93 40.62,127.67 0,25.32 -15.83,47.48 -47.48,66.47l-227.91 51.18 0 -12.66c21.11,-16.89 31.66,-39.04 31.66,-66.48 0,-10.55 -2.65,-30.59 -7.92,-60.14 -5.27,-29.53 -6.86,-50.64 -4.75,-63.31 -6.33,-25.32 -25.85,-49.07 -58.55,-71.22 -32.7,-22.15 -62.78,-33.23 -90.22,-33.23 -23.21,0 -46.43,13.71 -69.64,41.15 -23.21,27.42 -34.81,53.81 -34.81,79.13 0,14.77 4.37,27.32 12.66,37.99 65.55,84.29 176.07,211.15 332.36,379.84 109.59,118.29 164.6,196.25 164.6,234.24 0,14.77 -5.28,26.37 -15.83,34.81l-18.99 3.17 0 15.83z"></path>
      <path d="M1159.81 -4153.17c0,0 -52.43,20.96 -44.53,43.04 7.9,22.08 48.94,-3.09 106.66,-22.35 57.72,-19.27 3921.61,-1633.74 3921.61,-1633.74 32.92,-17.42 236.29,-114.24 179.83,-199.59 -56.46,-85.35 -392.89,102.75 -580.87,182.69 -187.97,79.94 -3582.7,1629.95 -3582.7,1629.95z"></path>
      <path d="M5601.27 -6005c-51.78,22.87 -218.82,89.15 -259.87,57.55 -7.53,-5.8 -12.12,-13.63 -14.25,-23.63 -8.68,-40.62 166.9,-142.2 199.39,-156.55 80.63,-35.61 158.9,-35.29 174.82,0.74 15.92,36.03 -48.31,99.02 -100.09,121.89z"></path>
      <circle transform="matrix(0.395451 -0.0846127 0.0846127 0.395451 5794.7 -6168.13)" r="240.33"></circle>
      <ellipse transform="matrix(-0.369904 0.163437 -0.163437 -0.369904 6027.85 -6271.15)" rx="394.67" ry="176.39"></ellipse>
      <ellipse transform="matrix(0.395451 -0.0846127 0.0846127 0.395451 6217.88 -6355.11)" rx="105.83" ry="103.63"></ellipse>
      <path d="M6382.47 -6495.36c73.02,-42.26 44.4,-83.58 63.18,-88.15l99.93 -47.32 100.75 212.74 -99.93 47.33c-20.24,18 -10.6,-22.41 -105.19,5.41 -84.56,24.87 -158.6,36.61 -174.82,0.71 -16.22,-35.91 39.79,-86.58 116.08,-130.72z"></path>
      <path d="M2516.33 -3695.04c0,0 -273.11,151.97 -301.25,443.32 -28.13,291.34 244.44,271.93 371.43,169.45 189.77,-153.12 329.72,-347.21 349.17,-597.36 71.22,-915.76 -806.82,-953.36 -1302.55,-340.62 -361.35,446.65 -499.2,1273.22 25.77,1591.37 800.37,485.05 1845.6,-618.03 1748.16,-1527.91 -9.32,-87.12 -28.71,-313.22 -175.5,-583.52 -69.1,-127.24 -330.87,-650.35 -1007.91,-589.1 -206.83,18.71 -400.04,80.32 -577.6,187.11 -440.65,265.26 -613.7,709.79 -613.7,709.79 230.97,-500.96 828.31,-946.52 1399.5,-852.9 556.58,91.44 876.93,793.49 825.64,1308.2 -41.07,410.79 -328.62,1068.08 -818.14,1259.77 -556.88,218.04 -1012.59,22 -1040.68,-636.74 -11.45,-268.51 66.99,-492.09 184.99,-666.31 139.25,-205.66 441.05,-451.35 694.8,-439.41 290.97,13.69 520.33,184.86 544.3,393.68 23.96,208.82 -26.04,465.71 -232.79,688.08 -129.94,139.76 -281.8,119.13 -316.53,77.43 -34.73,-41.71 -128.49,-296.52 242.89,-594.33z"></path>
      <polygon points="2657.02,-3870.12 2680.03,-3798.84 2754.93,-3798.98 2694.25,-3755.07 2717.53,-3683.88 2657.02,-3728.02 2596.51,-3683.88 2619.79,-3755.07 2559.11,-3798.98 2634.01,-3798.84 "></polygon>
      <polygon points="1005.45,-4302.92 1028.46,-4231.64 1103.36,-4231.78 1042.68,-4187.87 1065.96,-4116.68 1005.45,-4160.82 944.94,-4116.68 968.22,-4187.87 907.54,-4231.78 982.44,-4231.64 "></polygon>
    </g>
  </symbol>
  <symbol version="1.0" xmlns="http://www.w3.org/2000/svg" preserveAspectRatio="xMidYMid meet" viewBox="0 0 1024.000000 1024.000000" id="cart7">
    <g transform="translate(0.000000,1024.000000) scale(0.100000,-0.100000)" stroke="none">
      <path d="M1000 9814 c-348 -75 -531 -446 -374 -757 41 -80 154 -187 244 -230
109 -52 236 -81 330 -74 69 5 87 12 235 87 185 94 235 105 359 76 269 -63 432
-298 531 -769 14 -64 133 -845 265 -1735 132 -889 256 -1702 275 -1807 213
-1147 615 -1722 1330 -1900 142 -35 285 -54 470 -61 191 -8 1608 12 1915 26
839 39 1269 137 1621 371 110 73 315 272 404 393 282 381 527 944 915 2106
133 398 145 449 145 640 0 125 -3 155 -23 215 -35 105 -77 172 -161 256 -157
156 -335 228 -766 308 -734 137 -3604 612 -5225 866 -195 30 -365 58 -378 60
-15 4 -29 19 -38 43 -298 741 -485 1070 -783 1376 -279 286 -572 440 -959 507
-132 22 -240 23 -332 3z"></path>
      <path d="M3975 2039 c-231 -57 -431 -218 -540 -434 -63 -125 -86 -223 -87
-365 -2 -245 84 -446 261 -612 114 -106 217 -163 372 -205 91 -24 300 -24 394
1 300 79 525 303 606 601 29 105 31 297 5 400 -25 100 -105 259 -170 337 -112
135 -277 238 -446 278 -114 27 -283 26 -395 -1z"></path>
      <path d="M6515 2046 c-331 -75 -588 -342 -645 -670 -16 -86 -8 -281 14 -361
71 -260 276 -479 529 -566 270 -93 557 -47 785 126 230 174 358 496 311 785
-51 320 -292 590 -604 676 -81 22 -309 28 -390 10z"></path>
    </g>
  </symbol>
  <symbol xmlns="http://www.w3.org/2000/svg" xml:space="preserve" version="1.1" xmlns:xlink="http://www.w3.org/1999/xlink" xmlnsXodm="http://www.corel.com/coreldraw/odm/2003" viewBox="0 0 21000 29700" id="logo2">
    <defs></defs>
    <g id="Слой_x0020_1">
      <metadata id="CorelCorpID_0Corel-Layer"></metadata>
      <path d="M-20331.22 -4834.01c-4.22,8.44 -6.33,16.88 -6.33,25.32 0,37.99 50.65,100.24 151.94,186.76l-259.56 -94.96c-101.29,-37.99 -155.1,-83.36 -161.43,-136.11l12.13 -1769.44c103.4,-56.98 160.38,-92.85 170.4,-107.62l105.51 -145.61 0 402 -12.66 1639.66zm506.46 0c-4.22,8.44 -6.33,16.88 -6.33,25.32 0,37.99 50.65,100.24 151.94,186.76l-259.56 -94.96c-101.29,-37.99 -155.1,-83.36 -161.43,-136.11l12.13 -1769.44c103.4,-56.98 160.38,-92.85 170.4,-107.62l105.51 -145.61 0 402 -12.66 1639.66zm170.93 47.48l436.82 0c-65.41,-35.88 -92.85,-92.85 -82.3,-170.93 16.89,-126.62 28.49,-298.6 34.82,-515.95 6.33,-221.58 5.28,-412.56 -3.16,-572.93l-284.88 0c14.77,204.69 22.15,391.44 22.15,560.26 0,223.69 -11.6,410.45 -34.82,560.27 -10.55,65.42 -40.09,111.85 -88.63,139.28zm205.75 -1813.75c27.44,18.99 60.14,28.49 98.13,28.49 8.44,0 22.16,-2.11 41.15,-6.34 18.99,-4.22 32.71,-6.33 41.15,-6.33 23.21,0 34.82,96.02 34.82,288.05 -61.2,59.09 -132.95,92.85 -215.25,101.29 -50.64,-54.86 -91.79,-130.83 -123.45,-227.9 4.22,-33.77 7.39,-66.47 9.5,-98.13 14.77,-48.53 52.76,-74.91 113.95,-79.13zm1139.53 569.76l-18.99 778.68c-19,14.77 -132.95,105.51 -341.86,272.22 -84.41,67.53 -137.17,101.29 -158.27,101.29 -10.55,0 -17.94,-3.16 -22.16,-9.49l-180.42 -259.56c-4.22,-4.22 -6.33,-345.03 -6.33,-1022.41 0,-14.78 1.49,-31.53 1.49,-31.53 23.86,48.51 60.36,87.19 110.38,116.78 101.82,60.24 147.78,48.85 143.55,50.96 2.12,215.25 8.36,522.18 23.13,876.7 21.1,42.21 61.19,54.87 120.28,37.99 6.33,-2.11 43.26,-47.48 110.79,-136.11 2.11,-92.86 3.16,-184.65 3.16,-275.39 0,-208.91 -6.33,-416.77 -18.99,-623.58 15.19,42.41 76.39,75.27 98.13,82.3 86.52,27.44 131.89,41.15 136.11,41.15zm269.06 107.62l-94.96 -126.61c-33.77,-44.31 -50.65,-91.8 -50.65,-142.44 0,-18.99 5.28,-34.82 15.83,-47.48 21.1,-27.43 124.5,-96.02 310.2,-205.75 69.64,50.65 143.5,106.57 221.58,167.76 111.84,88.63 162.49,160.38 151.94,215.25l-12.66 721.7 117.11 6.33 -231.59 256.4c-53.82,37.98 -92.33,56.97 -116.07,56.97 -21.63,0 -29.01,-12.66 -22.68,-37.98l0 -113.96 -199.95 126.62c-91.27,16.88 -176.73,-166.71 -255.86,-550.77 35.87,-71.75 101.29,-128.73 196.25,-170.93l208.91 -94.96c-71.75,78.08 -106.57,139.27 -104.46,183.59 -4.22,29.54 -6.33,59.08 -6.33,88.63 0,141.38 30.6,253.23 91.8,335.53 33.76,4.22 56.98,-14.78 69.64,-56.98l0 -927.45 -47.48 25.32c-10.55,6.33 -39.04,24.27 -85.47,53.81 -78.08,48.54 -117.12,91.8 -117.12,129.78l28.49 104.46 -66.47 3.16zm677.39 -3.16c107.62,-73.86 230.02,-165.65 367.18,-275.39l0 284.89c40.1,-48.54 90.74,-104.46 151.94,-167.77 88.63,-67.53 141.39,-101.29 158.27,-101.29 10.55,0 17.93,3.16 22.16,9.5l180.42 259.56c2.11,2.11 3.17,347.13 3.17,1035.07 0,21.1 -10.56,34.82 -31.66,41.15l-291.21 170.93 0 -12.66c44.31,-42.21 69.64,-81.25 75.97,-117.12 -2.11,-354.52 -11.61,-723.82 -28.49,-1107.88 -21.1,-42.2 -61.2,-54.86 -120.28,-37.98 -6.33,2.11 -43.26,47.48 -110.79,136.11 -6.33,240.56 -1.06,498.01 15.83,772.35 4.22,67.52 36.92,108.67 98.12,123.44 -29.54,0 -74.38,-1.05 -134.53,-3.16 -60.14,-2.11 -104.98,-3.17 -134.52,-3.17 -19,0 -48.01,1.06 -87.05,3.17 -39.04,2.11 -68.06,3.16 -87.05,3.16 54.87,-23.21 87.58,-42.2 98.13,-56.97 8.44,-8.44 12.66,-29.55 12.66,-63.31l0 -898.96 -158.27 6.33zm1896.05 927.45l-335.52 15.83 0 -139.28 -238.99 126.61 -264.31 -193.08 -63.3 -959.11 386.17 -218.41 180.43 253.23 0 -648.9c8.44,-46.42 -12.67,-103.4 -63.31,-170.93l367.18 0c-42.2,54.87 -63.31,106.57 -63.31,155.11l28.49 1668.14c10.55,44.32 32.71,81.25 66.47,110.79zm-586.12 -1104.71l-24.79 509.62c-8.44,179.37 12.66,318.65 62.78,417.83l212.61 -101.29 0 -712.21 -157.74 -196.25 -92.86 82.3zm1419.44 394.68l-51.47 127.6c-82.3,-48.53 -176.2,-72.8 -281.72,-72.8 -63.3,0 -102.34,8.44 -117.11,25.32l22.15 519.12c16.89,35.88 52.76,68.58 107.63,98.13 42.2,-54.87 70.69,-123.45 85.46,-205.75 2.11,-8.44 7.39,-62.25 15.83,-161.43l139.27 177.26 -193.08 275.38 -161.44 3.17 -319.7 -278.55c-16.88,-80.19 -25.32,-171.99 -25.32,-275.39 0,-147.72 14.77,-302.82 44.31,-465.31l354.52 -278.55c25.33,-8.44 46.43,-7.39 63.31,3.17l256.39 167.76 60.97 340.87zm-200.24 -18l-161.43 -364.02c-14.78,-18.99 -24.27,-28.49 -28.49,-28.49 -8.44,0 -16.88,7.39 -25.33,22.16l-37.98 360.85c118.17,-6.33 202.58,-3.16 253.23,9.5zm261.52 -402.72c107.62,-73.86 230.01,-165.66 367.18,-275.39l0 284.88c109.73,-94.96 181.48,-142.44 215.24,-142.44 10.55,0 18.39,2.93 22.16,9.5l148.77 259.56c12.62,22.01 25.32,37.98 25.32,56.98 0,21.1 -12.68,30.02 -31.65,41.15l-291.21 170.92 0 -12.66c44.31,-42.2 69.64,-81.24 75.97,-117.11 -8.45,-31.66 -23.03,-70.81 -44.32,-117.12 -27.21,-59.17 -48.35,-85.74 -63.31,-82.3 -12.49,2.87 -28.48,15.82 -47.48,41.15 -8.44,314.42 -3.16,624.64 15.83,930.61 4.19,67.51 36.93,108.68 98.13,123.45 -29.55,0 -74.39,0 -134.53,0 -60.14,0 -104.99,0 -134.53,0 -18.99,0 -48.01,0 -87.05,0 -39.04,0 -68.05,0 -87.04,0 54.86,-23.21 86.64,-42.93 98.12,-56.97 7.55,-9.23 12.66,-29.55 12.66,-63.31l0 -1057.23 -158.26 6.33zm1585.48 940.81c-16.88,12.66 -84.23,64.6 -202.58,155.1 -132.76,101.52 -220.52,151.94 -262.73,151.94 -6.33,0 -9.68,-2.68 -12.66,-6.33l-212.08 -259.56c-27.43,-61.2 -41.15,-103.41 -41.15,-126.62 0,-25.32 15.83,-47.48 47.48,-66.47l63.31 -37.98 139.28 -31.66c-16.89,16.88 -25.33,37.99 -25.33,63.31 0,8.44 2.65,26.9 7.92,55.39 5.27,28.48 6.85,48.01 4.74,58.56 6.33,25.32 34.3,57.52 84.41,96.55 50.11,39.03 86.52,55.39 109.21,49.06 0,-23.21 20.05,-60.14 59.61,-110.79l-12.66 3.17c8.44,-6.33 12.66,-15.83 12.66,-28.49 0,-27.44 -81.77,-136.12 -245.31,-325.51 -235,-272.14 -258.76,-291.47 -232.37,-326.49 12.7,-16.85 111.49,-102.02 228.67,-192.63 131.79,-101.91 218.94,-152.46 260.62,-152.46 6.33,0 9.7,2.67 12.66,6.33l210.5 261.14c26.9,61.73 40.62,103.93 40.62,127.67 0,25.32 -15.83,47.48 -47.48,66.47l-227.91 51.18 0 -12.66c21.11,-16.89 31.66,-39.04 31.66,-66.48 0,-10.55 -2.65,-30.59 -7.92,-60.14 -5.27,-29.53 -6.86,-50.64 -4.75,-63.31 -6.33,-25.32 -25.85,-49.07 -58.55,-71.22 -32.7,-22.15 -62.78,-33.23 -90.22,-33.23 -23.21,0 -46.43,13.71 -69.64,41.15 -23.21,27.42 -34.81,53.81 -34.81,79.13 0,14.77 4.37,27.32 12.66,37.99 65.55,84.29 176.07,211.15 332.36,379.84 109.59,118.29 164.6,196.25 164.6,234.24 0,14.77 -5.28,26.37 -15.83,34.81l-18.99 3.17 0 15.83z"></path>
      <path d="M-23231.46 -6149.14c0,0 -52.43,20.96 -44.53,43.04 7.9,22.08 48.94,-3.09 106.66,-22.35 57.72,-19.27 3921.61,-1633.74 3921.61,-1633.74 32.92,-17.42 236.29,-114.24 179.83,-199.59 -56.46,-85.35 -392.89,102.75 -580.87,182.69 -187.97,79.94 -3582.7,1629.95 -3582.7,1629.95z"></path>
      <path d="M-18790 -8000.97c-51.78,22.87 -218.82,89.15 -259.87,57.55 -7.53,-5.8 -12.12,-13.63 -14.25,-23.63 -8.68,-40.62 166.9,-142.2 199.39,-156.55 80.63,-35.61 158.9,-35.29 174.82,0.74 15.92,36.03 -48.31,99.02 -100.09,121.89z"></path>
      <circle transform="matrix(0.395451 -0.0846127 0.0846127 0.395451 -18596.6 -8164.1)" r="240.33"></circle>
      <ellipse transform="matrix(-0.369904 0.163437 -0.163437 -0.369904 -18363.4 -8267.12)" rx="394.67" ry="176.39"></ellipse>
      <ellipse transform="matrix(0.395451 -0.0846127 0.0846127 0.395451 -18173.4 -8351.08)" rx="105.83" ry="103.63"></ellipse>
      <path d="M-18008.8 -8491.33c73.02,-42.26 44.4,-83.58 63.18,-88.15l99.93 -47.32 100.75 212.74 -99.93 47.33c-20.24,18 -10.6,-22.41 -105.19,5.41 -84.56,24.87 -158.6,36.61 -174.82,0.71 -16.22,-35.91 39.79,-86.58 116.08,-130.72z"></path>
      <path d="M-21874.94 -5691.01c0,0 -273.11,151.97 -301.25,443.32 -28.13,291.34 244.44,271.93 371.43,169.45 49.09,-39.61 108.83,-91.85 165.02,-158.79 11.15,-13.29 63.81,-19.58 63.81,-19.58 0,0 -7.64,-54.37 3.37,-71.61 59.51,-93.2 106.12,-207.85 116.97,-347.38 16.32,-209.81 -24.53,-437.91 -140.35,-588 -23.3,-30.2 -41.71,-159.74 -41.71,-159.74 0,0 -121.5,24.96 -172.25,10.02 -278.98,-82.14 -672.67,56.48 -948.24,397.1 -275.58,340.62 -395.39,937.99 -234.5,1266.61 13.48,27.55 -16.43,129.09 -16.43,129.09 0,0 99.19,9.61 119.28,35.73 54.53,70.86 122.39,139.19 201.56,190.78 251.61,163.99 617.6,207.58 1034.09,-26.96 62.36,-35.11 251.06,-13.71 251.06,-13.71 0,0 -5.92,-172.29 27.09,-208.22 394.59,-429.51 444.19,-1097 427.06,-1256.94 -9.33,-87.13 -63.99,-366.13 -210.78,-636.44 -16.5,-30.38 2.05,-125.83 2.05,-125.83 0,0 -93.09,-22.55 -113.88,-50.62 -185.88,-251.04 -469.96,-451.2 -896.08,-412.65 -188.61,17.06 -351.34,68.63 -490.54,138.98 -14.52,7.33 -56.04,6.62 -56.04,6.62 0,0 -16.57,32.82 -31.02,41.51 -440.65,265.26 -613.7,709.79 -613.7,709.79 0,0 374.85,-813.05 1193.01,-862.67 34.84,-2.11 101.54,65.72 101.54,65.72 0,0 71.18,-61.49 104.95,-55.95 501.86,82.45 741.35,587.04 809.05,986.68 10.76,63.52 -68.55,180.5 -68.55,180.5 0,0 89.32,99.15 85.14,141.02 -41.07,410.79 -328.62,1068.08 -818.14,1259.77 -92.21,36.1 -189.74,63.34 -288.05,76.07 -29.68,3.84 -88.68,-54.37 -88.68,-54.37 0,0 -62.99,62.24 -93.86,59.78 -306.18,-24.49 -549.33,-231.4 -570.09,-718.22 -11.45,-268.51 66.99,-492.09 184.99,-666.31 19.68,-29.06 142.51,-53.49 142.51,-53.49 0,0 -33.26,-84 -8.53,-108.8 187.46,-188.01 415.27,-283.97 560.82,-277.12 290.97,13.69 520.33,184.86 544.3,393.68 23.96,208.82 -6.26,498.89 -232.79,688.08 -196.83,164.4 -281.8,119.13 -316.53,77.43 -34.73,-41.71 -128.49,-296.52 242.89,-594.33z"></path>
      <polygon points="-21734.25,-5866.09 -21711.24,-5794.81 -21636.34,-5794.95 -21697.02,-5751.04 -21673.74,-5679.85 -21734.25,-5723.99 -21794.76,-5679.85 -21771.48,-5751.04 -21832.16,-5794.95 -21757.26,-5794.81 "></polygon>
      <polygon points="-23385.82,-6298.89 -23362.81,-6227.61 -23287.91,-6227.75 -23348.59,-6183.84 -23325.31,-6112.65 -23385.82,-6156.79 -23446.33,-6112.65 -23423.05,-6183.84 -23483.73,-6227.75 -23408.83,-6227.61 "></polygon>
      <path d="M4308.28 4868.09c-4.22,8.44 -6.33,16.88 -6.33,25.32 0,37.99 50.65,100.24 151.94,186.76l-259.56 -94.96c-101.29,-37.99 -155.1,-83.36 -161.43,-136.11l12.13 -1769.44c103.4,-56.98 160.38,-92.85 170.4,-107.62l105.51 -145.61 0 402 -12.66 1639.66zm506.46 0c-4.22,8.44 -6.33,16.88 -6.33,25.32 0,37.99 50.65,100.24 151.94,186.76l-259.56 -94.96c-101.29,-37.99 -155.1,-83.36 -161.43,-136.11l12.13 -1769.44c103.4,-56.98 160.38,-92.85 170.4,-107.62l105.51 -145.61 0 402 -12.66 1639.66zm170.93 47.48l436.82 0c-65.41,-35.88 -92.85,-92.85 -82.3,-170.93 16.89,-126.62 28.49,-298.6 34.82,-515.95 6.33,-221.58 5.28,-412.56 -3.16,-572.93l-284.88 0c14.77,204.69 22.15,391.44 22.15,560.26 0,223.69 -11.6,410.45 -34.82,560.27 -10.55,65.42 -40.09,111.85 -88.63,139.28zm205.75 -1813.75c27.44,18.99 60.14,28.49 98.13,28.49 8.44,0 22.16,-2.11 41.15,-6.34 18.99,-4.22 32.71,-6.33 41.15,-6.33 23.21,0 34.82,96.02 34.82,288.05 -61.2,59.09 -132.95,92.85 -215.25,101.29 -50.64,-54.86 -91.79,-130.83 -123.45,-227.9 4.22,-33.77 7.39,-66.47 9.5,-98.13 14.77,-48.53 52.76,-74.91 113.95,-79.13zm1139.53 569.76l-18.99 778.68c-19,14.77 -132.95,105.51 -341.86,272.22 -84.41,67.53 -137.17,101.29 -158.27,101.29 -10.55,0 -17.94,-3.16 -22.16,-9.49l-180.42 -259.56c-4.22,-4.22 -6.33,-345.03 -6.33,-1022.41 0,-14.78 1.49,-31.53 1.49,-31.53 23.86,48.51 60.36,87.19 110.38,116.78 101.82,60.24 147.78,48.85 143.55,50.96 2.12,215.25 8.36,522.18 23.13,876.7 21.1,42.21 61.19,54.87 120.28,37.99 6.33,-2.11 43.26,-47.48 110.79,-136.11 2.11,-92.86 3.16,-184.65 3.16,-275.39 0,-208.91 -6.33,-416.77 -18.99,-623.58 15.19,42.41 76.39,75.27 98.13,82.3 86.52,27.44 131.89,41.15 136.11,41.15zm269.06 107.62l-94.96 -126.61c-33.77,-44.31 -50.65,-91.8 -50.65,-142.44 0,-18.99 5.28,-34.82 15.83,-47.48 21.1,-27.43 124.5,-96.02 310.2,-205.75 69.64,50.65 143.5,106.57 221.58,167.76 111.84,88.63 162.49,160.38 151.94,215.25l-12.66 721.7 117.11 6.33 -231.59 256.4c-53.82,37.98 -92.33,56.97 -116.07,56.97 -21.63,0 -29.01,-12.66 -22.68,-37.98l0 -113.96 -199.95 126.62c-91.27,16.88 -176.73,-166.71 -255.86,-550.77 35.87,-71.75 101.29,-128.73 196.25,-170.93l208.91 -94.96c-71.75,78.08 -106.57,139.27 -104.46,183.59 -4.22,29.54 -6.33,59.08 -6.33,88.63 0,141.38 30.6,253.23 91.8,335.53 33.76,4.22 56.98,-14.78 69.64,-56.98l0 -927.45 -47.48 25.32c-10.55,6.33 -39.04,24.27 -85.47,53.81 -78.08,48.54 -117.12,91.8 -117.12,129.78l28.49 104.46 -66.47 3.16zm677.39 -3.16c107.62,-73.86 230.02,-165.65 367.18,-275.39l0 284.89c40.1,-48.54 90.74,-104.46 151.94,-167.77 88.63,-67.53 141.39,-101.29 158.27,-101.29 10.55,0 17.93,3.16 22.16,9.5l180.42 259.56c2.11,2.11 3.17,347.13 3.17,1035.07 0,21.1 -10.56,34.82 -31.66,41.15l-291.21 170.93 0 -12.66c44.31,-42.21 69.64,-81.25 75.97,-117.12 -2.11,-354.52 -11.61,-723.82 -28.49,-1107.88 -21.1,-42.2 -61.2,-54.86 -120.28,-37.98 -6.33,2.11 -43.26,47.48 -110.79,136.11 -6.33,240.56 -1.06,498.01 15.83,772.35 4.22,67.52 36.92,108.67 98.12,123.44 -29.54,0 -74.38,-1.05 -134.53,-3.16 -60.14,-2.11 -104.98,-3.17 -134.52,-3.17 -19,0 -48.01,1.06 -87.05,3.17 -39.04,2.11 -68.06,3.16 -87.05,3.16 54.87,-23.21 87.58,-42.2 98.13,-56.97 8.44,-8.44 12.66,-29.55 12.66,-63.31l0 -898.96 -158.27 6.33zm1896.05 927.45l-335.52 15.83 0 -139.28 -238.99 126.61 -264.31 -193.08 -63.3 -959.11 386.17 -218.41 180.43 253.23 0 -648.9c8.44,-46.42 -12.67,-103.4 -63.31,-170.93l367.18 0c-42.2,54.87 -63.31,106.57 -63.31,155.11l28.49 1668.14c10.55,44.32 32.71,81.25 66.47,110.79zm-586.12 -1104.71l-24.79 509.62c-8.44,179.37 12.66,318.65 62.78,417.83l212.61 -101.29 0 -712.21 -157.74 -196.25 -92.86 82.3zm1419.44 394.68l-51.47 127.6c-82.3,-48.53 -176.2,-72.8 -281.72,-72.8 -63.3,0 -102.34,8.44 -117.11,25.32l22.15 519.12c16.89,35.88 52.76,68.58 107.63,98.13 42.2,-54.87 70.69,-123.45 85.46,-205.75 2.11,-8.44 7.39,-62.25 15.83,-161.43l139.27 177.26 -193.08 275.38 -161.44 3.17 -319.7 -278.55c-16.88,-80.19 -25.32,-171.99 -25.32,-275.39 0,-147.72 14.77,-302.82 44.31,-465.31l354.52 -278.55c25.33,-8.44 46.43,-7.39 63.31,3.17l256.39 167.76 60.97 340.87zm-200.24 -18l-161.43 -364.02c-14.78,-18.99 -24.27,-28.49 -28.49,-28.49 -8.44,0 -16.88,7.39 -25.33,22.16l-37.98 360.85c118.17,-6.33 202.58,-3.16 253.23,9.5zm261.52 -402.72c107.62,-73.86 230.01,-165.66 367.18,-275.39l0 284.88c109.73,-94.96 181.48,-142.44 215.24,-142.44 10.55,0 18.39,2.93 22.16,9.5l148.77 259.56c12.62,22.01 25.32,37.98 25.32,56.98 0,21.1 -12.68,30.02 -31.65,41.15l-291.21 170.92 0 -12.66c44.31,-42.2 69.64,-81.24 75.97,-117.11 -8.45,-31.66 -23.03,-70.81 -44.32,-117.12 -27.21,-59.17 -48.35,-85.74 -63.31,-82.3 -12.49,2.87 -28.48,15.82 -47.48,41.15 -8.44,314.42 -3.16,624.64 15.83,930.61 4.19,67.51 36.93,108.68 98.13,123.45 -29.55,0 -74.39,0 -134.53,0 -60.14,0 -104.99,0 -134.53,0 -18.99,0 -48.01,0 -87.05,0 -39.04,0 -68.05,0 -87.04,0 54.86,-23.21 86.64,-42.93 98.12,-56.97 7.55,-9.23 12.66,-29.55 12.66,-63.31l0 -1057.23 -158.26 6.33zm1585.48 940.81c-16.88,12.66 -84.23,64.6 -202.58,155.1 -132.76,101.52 -220.52,151.94 -262.73,151.94 -6.33,0 -9.68,-2.68 -12.66,-6.33l-212.08 -259.56c-27.43,-61.2 -41.15,-103.41 -41.15,-126.62 0,-25.32 15.83,-47.48 47.48,-66.47l63.31 -37.98 139.28 -31.66c-16.89,16.88 -25.33,37.99 -25.33,63.31 0,8.44 2.65,26.9 7.92,55.39 5.27,28.48 6.85,48.01 4.74,58.56 6.33,25.32 34.3,57.52 84.41,96.55 50.11,39.03 86.52,55.39 109.21,49.06 0,-23.21 20.05,-60.14 59.61,-110.79l-12.66 3.17c8.44,-6.33 12.66,-15.83 12.66,-28.49 0,-27.44 -81.77,-136.12 -245.31,-325.51 -235,-272.14 -258.76,-291.47 -232.37,-326.49 12.7,-16.85 111.49,-102.02 228.67,-192.63 131.79,-101.91 218.94,-152.46 260.62,-152.46 6.33,0 9.7,2.67 12.66,6.33l210.5 261.14c26.9,61.73 40.62,103.93 40.62,127.67 0,25.32 -15.83,47.48 -47.48,66.47l-227.91 51.18 0 -12.66c21.11,-16.89 31.66,-39.04 31.66,-66.48 0,-10.55 -2.65,-30.59 -7.92,-60.14 -5.27,-29.53 -6.86,-50.64 -4.75,-63.31 -6.33,-25.32 -25.85,-49.07 -58.55,-71.22 -32.7,-22.15 -62.78,-33.23 -90.22,-33.23 -23.21,0 -46.43,13.71 -69.64,41.15 -23.21,27.42 -34.81,53.81 -34.81,79.13 0,14.77 4.37,27.32 12.66,37.99 65.55,84.29 176.07,211.15 332.36,379.84 109.59,118.29 164.6,196.25 164.6,234.24 0,14.77 -5.28,26.37 -15.83,34.81l-18.99 3.17 0 15.83z"></path>
      <path d="M1408.04 3552.96c0,0 -52.43,20.96 -44.53,43.04 7.9,22.08 48.94,-3.09 106.66,-22.35 57.72,-19.27 3921.61,-1633.74 3921.61,-1633.74 32.92,-17.42 236.29,-114.24 179.83,-199.59 -56.46,-85.35 -392.89,102.75 -580.87,182.69 -187.97,79.94 -3582.7,1629.95 -3582.7,1629.95z"></path>
      <path d="M5849.5 1701.13c-51.78,22.87 -218.82,89.15 -259.87,57.55 -7.53,-5.8 -12.12,-13.63 -14.25,-23.63 -8.68,-40.62 166.9,-142.2 199.39,-156.55 80.63,-35.61 158.9,-35.29 174.82,0.74 15.92,36.03 -48.31,99.02 -100.09,121.89z"></path>
      <circle transform="matrix(0.395451 -0.0846127 0.0846127 0.395451 6042.93 1538)" r="240.33"></circle>
      <ellipse transform="matrix(-0.369904 0.163437 -0.163437 -0.369904 6276.08 1434.98)" rx="394.67" ry="176.39"></ellipse>
      <ellipse transform="matrix(0.395451 -0.0846127 0.0846127 0.395451 6466.11 1351.02)" rx="105.83" ry="103.63"></ellipse>
      <path d="M6630.7 1210.77c73.02,-42.26 44.4,-83.58 63.18,-88.15l99.93 -47.32 100.75 212.74 -99.93 47.33c-20.24,18 -10.6,-22.41 -105.19,5.41 -84.56,24.87 -158.6,36.61 -174.82,0.71 -16.22,-35.91 39.79,-86.58 116.08,-130.72z"></path>
      <path d="M2764.56 4011.09c0,0 -273.11,151.97 -301.25,443.32 -28.13,291.34 244.44,271.93 371.43,169.45 189.77,-153.12 329.72,-347.21 349.17,-597.36 71.22,-915.76 -806.82,-953.36 -1302.55,-340.62 -361.35,446.65 -499.2,1273.22 25.77,1591.37 800.37,485.05 1845.6,-618.03 1748.16,-1527.91 -9.32,-87.12 -28.71,-313.22 -175.5,-583.52 -69.1,-127.24 -330.87,-650.35 -1007.91,-589.1 -206.83,18.71 -400.04,80.32 -577.6,187.11 -440.65,265.26 -613.7,709.79 -613.7,709.79 230.97,-500.96 828.31,-946.52 1399.5,-852.9 556.58,91.44 876.93,793.49 825.64,1308.2 -41.07,410.79 -328.62,1068.08 -818.14,1259.77 -556.88,218.04 -1012.59,22 -1040.68,-636.74 -11.45,-268.51 66.99,-492.09 184.99,-666.31 139.25,-205.66 441.05,-451.35 694.8,-439.41 290.97,13.69 520.33,184.86 544.3,393.68 23.96,208.82 -26.04,465.71 -232.79,688.08 -129.94,139.76 -281.8,119.13 -316.53,77.43 -34.73,-41.71 -128.49,-296.52 242.89,-594.33z"></path>
      <polygon points="2905.25,3836.01 2928.26,3907.29 3003.16,3907.15 2942.48,3951.06 2965.76,4022.25 2905.25,3978.11 2844.74,4022.25 2868.02,3951.06 2807.34,3907.15 2882.24,3907.29 "></polygon>
      <polygon points="1253.68,3403.21 1276.69,3474.49 1351.59,3474.35 1290.91,3518.26 1314.19,3589.45 1253.68,3545.31 1193.17,3589.45 1216.45,3518.26 1155.77,3474.35 1230.67,3474.49 "></polygon>
    </g>
  </symbol>
</svg>