<svg width="0" height="0" class="hidden">
  <symbol version="1.0" xmlns="http://www.w3.org/2000/svg" preserveAspectRatio="xMidYMid meet" viewBox="0 0 200.000000 200.000000" id="car3">
    <g transform="translate(0.000000,200.000000) scale(0.100000,-0.100000)" fill="currentColor" stroke="none">
      <path d="M820 1244 c-114 -11 -391 -48 -553 -75 -97 -16 -179 -29 -182 -29 -2
0 3 -16 11 -36 20 -48 15 -89 -11 -89 -32 0 -30 -33 5 -65 30 -28 113 -65 172
-77 23 -4 28 -2 28 13 0 30 37 82 72 104 90 55 218 -14 220 -117 l0 -40 91 -7
c49 -3 235 -6 411 -6 l322 0 -4 38 c-6 75 51 140 130 149 89 10 160 -53 162
-143 l1 -44 114 0 113 0 -16 25 c-16 25 -16 28 4 59 l20 34 -42 32 c-92 67
-238 120 -336 120 -27 0 -64 11 -100 29 -167 84 -455 141 -632 125z m255 -59
c147 -24 352 -95 338 -117 -10 -17 -274 -2 -478 28 -99 14 -220 29 -270 33
l-90 7 35 15 c42 19 96 36 130 42 60 10 253 6 335 -8z"></path>
      <path d="M369 973 c-89 -55 -73 -198 25 -231 85 -28 166 29 166 116 -1 26 -6
57 -14 70 -31 57 -121 80 -177 45z m111 -63 c24 -24 26 -67 3 -92 -20 -22 -70
-23 -95 -1 -40 36 -8 113 47 113 14 0 34 -9 45 -20z"></path>
      <path d="M1459 951 c-33 -32 -39 -45 -39 -80 0 -49 20 -92 52 -113 77 -50 175
-14 199 74 8 32 6 46 -10 82 -23 52 -61 76 -122 76 -35 0 -48 -6 -80 -39z
m129 -37 c15 -10 22 -25 22 -46 0 -42 -25 -68 -66 -68 -57 0 -85 69 -44 110
24 24 57 26 88 4z"></path>
    </g>
  </symbol>
</svg>